<svg xmlns="http://www.w3.org/2000/svg" width="48" height="44" viewBox="0 0 48 44">
  <g id="Group_30404" data-name="Group 30404" transform="translate(-16 -32)">
    <g id="cloud-settings" transform="translate(16 32)">
      <g id="Group_34771" data-name="Group 34771" transform="translate(0 0)">
        <path id="Path_86833" data-name="Path 86833" d="M8,32.78a1.025,1.025,0,0,1-.218-.024,10,10,0,0,1,1.53-19.732A14.986,14.986,0,0,1,37.306,9.088a11.985,11.985,0,0,1,3.058,23.084,1,1,0,1,1-.726-1.862,9.985,9.985,0,0,0-3.032-19.272,1,1,0,0,1-.852-.576,12.984,12.984,0,0,0-24.6,3.678,1,1,0,0,1-.99.86A8.044,8.044,0,0,0,2,23a7.935,7.935,0,0,0,6.218,7.8A1,1,0,0,1,8,32.78Z" transform="translate(0 -1)" fill="#1877f2"/>
      </g>
      <g id="Group_34774" data-name="Group 34774" transform="translate(11.674 18.004)">
        <g id="Group_34772" data-name="Group 34772" transform="translate(7.326 7.996)">
          <path id="Path_86834" data-name="Path 86834" d="M14.5,24a5,5,0,1,1,5-5A5.006,5.006,0,0,1,14.5,24Zm0-8a3,3,0,1,0,3,3A3,3,0,0,0,14.5,16Z" transform="translate(-9.5 -14)" fill="#1877f2"/>
        </g>
        <g id="Group_34773" data-name="Group 34773">
          <path id="Path_86835" data-name="Path 86835" d="M19.759,36H16.567a1.991,1.991,0,0,1-1.988-1.8l-.256-2.542a9.392,9.392,0,0,1-1.73-1.006L10.259,31.7A2,2,0,0,1,7.7,30.88L6.109,28.118a1.992,1.992,0,0,1,.562-2.624l2.06-1.48a7.609,7.609,0,0,1,0-2.03L6.671,20.5a1.994,1.994,0,0,1-.562-2.626L7.7,15.118a2,2,0,0,1,2.554-.824l2.336,1.056a9.392,9.392,0,0,1,1.73-1.006l.256-2.542A1.992,1.992,0,0,1,16.567,10h3.192a1.991,1.991,0,0,1,1.988,1.8L22,14.346a9.44,9.44,0,0,1,1.73,1.006L26.067,14.3a1.993,1.993,0,0,1,2.556.822l1.594,2.762a1.991,1.991,0,0,1-.562,2.624l-2.06,1.48A7.957,7.957,0,0,1,27.663,23a8.312,8.312,0,0,1-.068,1.014l2.06,1.48a1.994,1.994,0,0,1,.562,2.626l-1.594,2.76a2,2,0,0,1-2.554.824l-2.336-1.056A9.392,9.392,0,0,1,22,31.654L21.747,34.2A1.992,1.992,0,0,1,19.759,36Zm-7.026-7.51a1,1,0,0,1,.642.234A7.448,7.448,0,0,0,15.6,30.016a1,1,0,0,1,.65.84L16.567,34h3.192l.314-3.142a1,1,0,0,1,.65-.84,7.491,7.491,0,0,0,2.226-1.294A1,1,0,0,1,24,28.578l2.886,1.3,1.6-2.762-2.556-1.836a1,1,0,0,1-.4-.986,6.428,6.428,0,0,0,0-2.592,1.007,1.007,0,0,1,.4-.986l2.556-1.836-1.594-2.762L24,17.424a1,1,0,0,1-1.054-.144,7.4,7.4,0,0,0-2.226-1.294,1,1,0,0,1-.65-.84L19.759,12H16.567l-.314,3.142a1,1,0,0,1-.65.84,7.491,7.491,0,0,0-2.226,1.294,1,1,0,0,1-1.054.144l-2.886-1.3-1.6,2.764,2.556,1.836a1,1,0,0,1,.4.986,6.438,6.438,0,0,0,0,2.594,1.007,1.007,0,0,1-.4.986L7.839,27.118,9.433,29.88l2.888-1.3A.976.976,0,0,1,12.733,28.488Z" transform="translate(-5.837 -10.002)" fill="#1877f2"/>
        </g>
      </g>
    </g>
  </g>
</svg>
