<svg id="Page-1" xmlns="http://www.w3.org/2000/svg" width="47.143" height="44" viewBox="0 0 47.143 44">
  <g id="_055---Refresh-Page" data-name="055---Refresh-Page">
    <path id="Shape" d="M26.786,5.571H31.5A.786.786,0,1,0,31.5,4H26.786a.786.786,0,1,0,0,1.571Z" transform="translate(-5.571 -0.857)" fill="#1877f2"/>
    <path id="Shape-2" data-name="Shape" d="M43.786,5.571h8.643a.786.786,0,0,0,0-1.571H43.786a.786.786,0,1,0,0,1.571Z" transform="translate(-9.214 -0.857)" fill="#1877f2"/>
    <path id="Shape-3" data-name="Shape" d="M43.214,0H3.929A3.933,3.933,0,0,0,0,3.929V33.786a3.933,3.933,0,0,0,3.929,3.929h7.078a15.68,15.68,0,0,0,25.108,0h7.1a3.933,3.933,0,0,0,3.929-3.929V3.929A3.933,3.933,0,0,0,43.214,0ZM3.929,1.571H43.214a2.357,2.357,0,0,1,2.357,2.357V6.286h-44V3.929A2.357,2.357,0,0,1,3.929,1.571ZM23.571,42.429A14.214,14.214,0,0,1,12.131,36.6a.786.786,0,0,1-.021-.91c.018-.019.037-.039.053-.059a.749.749,0,0,1,.591-.281h.02a.837.837,0,0,1,.653.35,12.493,12.493,0,0,0,1.586,1.777l.014.013a12.523,12.523,0,0,0,17.081,0c.009-.009.019-.017.027-.027a12.518,12.518,0,0,0,3.555-5.831.786.786,0,0,0-.757-1H33.816l-.012-.123,2.121-2.585a.641.641,0,0,0,.045-.061l.972-1.15,3.111,3.8.607-.5-.614.621H38.161a.786.786,0,0,0-.768.622A14.2,14.2,0,0,1,23.571,42.429Zm-5.613-4.714H29.219A10.873,10.873,0,0,1,17.958,37.714Zm25.256-1.571h-6.05a15.478,15.478,0,0,0,1.623-3.929h1.257a1.585,1.585,0,0,0,1.439-.92,1.65,1.65,0,0,0-.211-1.77l-3.111-3.795a1.586,1.586,0,0,0-2.452,0l-.991,1.2c-.018.023-.035.046-.051.07l-2.073,2.527a1.654,1.654,0,0,0-.209,1.769,1.586,1.586,0,0,0,1.432.919h.031a10.965,10.965,0,0,1-2.593,3.929H15.91a10.979,10.979,0,0,1-1.217-1.369,2.394,2.394,0,0,0-1.877-.992,2.283,2.283,0,0,0-1.816.8c-.018.018-.037.038-.053.058a2.357,2.357,0,0,0-.533,1.505H3.929a2.357,2.357,0,0,1-2.357-2.357V7.857h44V33.786a2.357,2.357,0,0,1-2.357,2.357Z" fill="#1877f2"/>
    <circle id="Oval" cx="0.786" cy="0.786" r="0.786" transform="translate(3.143 3.143)" fill="#1877f2"/>
    <circle id="Oval-2" data-name="Oval" cx="0.786" cy="0.786" r="0.786" transform="translate(6.286 3.143)" fill="#1877f2"/>
    <circle id="Oval-3" data-name="Oval" cx="0.786" cy="0.786" r="0.786" transform="translate(9.429 3.143)" fill="#1877f2"/>
    <path id="Shape-4" data-name="Shape" d="M25.071,16a15.631,15.631,0,0,0-15.4,12.571H8.6a1.586,1.586,0,0,0-1.439.919,1.656,1.656,0,0,0,.211,1.771l3.111,3.8a1.589,1.589,0,0,0,2.456,0l3.113-3.8a1.654,1.654,0,0,0,.209-1.769,1.586,1.586,0,0,0-1.439-.92h-.3A11,11,0,0,1,34.2,25.586a2.381,2.381,0,0,0,1.878,1.063,2.3,2.3,0,0,0,1.9-.846l0,0,0-.006a2.347,2.347,0,0,0,.136-2.806A15.661,15.661,0,0,0,25.071,16Zm11.7,8.8a.735.735,0,0,1-.62.278.823.823,0,0,1-.648-.372A12.571,12.571,0,0,0,12.751,29.2a.786.786,0,0,0,.77.943h1.306l.012.124L11.7,34.062,8.589,30.267l-.607.5.621-.622h1.729a.786.786,0,0,0,.776-.662A14.134,14.134,0,0,1,36.82,23.857a.793.793,0,0,1-.044.937l.608.5Z" transform="translate(-1.5 -3.429)" fill="#1877f2"/>
    <path id="Shape-5" data-name="Shape" d="M4.786,14.571H6.357a.786.786,0,1,0,0-1.571H4.786a.786.786,0,1,0,0,1.571Z" transform="translate(-0.857 -2.786)" fill="#1877f2"/>
    <path id="Shape-6" data-name="Shape" d="M10.786,14.571h7.071a.786.786,0,0,0,0-1.571H10.786a.786.786,0,1,0,0,1.571Z" transform="translate(-2.143 -2.786)" fill="#1877f2"/>
    <path id="Shape-7" data-name="Shape" d="M11.857,17.786A.786.786,0,0,0,11.071,17H4.786a.786.786,0,1,0,0,1.571h6.286A.786.786,0,0,0,11.857,17.786Z" transform="translate(-0.857 -3.643)" fill="#1877f2"/>
    <path id="Shape-8" data-name="Shape" d="M54.357,13H52.786a.786.786,0,1,0,0,1.571h1.571a.786.786,0,0,0,0-1.571Z" transform="translate(-11.143 -2.786)" fill="#1877f2"/>
    <path id="Shape-9" data-name="Shape" d="M39.786,14.571h7.071a.786.786,0,0,0,0-1.571H39.786a.786.786,0,0,0,0,1.571Z" transform="translate(-8.357 -2.786)" fill="#1877f2"/>
    <path id="Shape-10" data-name="Shape" d="M53.071,17H46.786a.786.786,0,0,0,0,1.571h6.286a.786.786,0,0,0,0-1.571Z" transform="translate(-9.857 -3.643)" fill="#1877f2"/>
  </g>
</svg>
