<svg xmlns="http://www.w3.org/2000/svg" width="47.143" height="44" viewBox="0 0 47.143 44">
  <g id="Group_30473" data-name="Group 30473" transform="translate(-101)">
    <g id="surface1" transform="translate(101 -0.25)">
      <path id="Path_86842" data-name="Path 86842" d="M3.143,37.964H4.714V36.393H3.143a1.571,1.571,0,0,1-1.571-1.571V3.393A1.571,1.571,0,0,1,3.143,1.821H37.714a1.571,1.571,0,0,1,1.571,1.571V4.964h1.571V3.393A3.143,3.143,0,0,0,37.714.25H3.143A3.143,3.143,0,0,0,0,3.393V34.821A3.143,3.143,0,0,0,3.143,37.964Zm0,0" fill="#1877f2"/>
      <path id="Path_86843" data-name="Path 86843" d="M62.5,62.75h1.571v1.571H62.5Zm0,0" transform="translate(-59.357 -59.357)" fill="#1877f2"/>
      <path id="Path_86844" data-name="Path 86844" d="M125,62.75h1.571v1.571H125Zm0,0" transform="translate(-118.714 -59.357)" fill="#1877f2"/>
      <path id="Path_86845" data-name="Path 86845" d="M187.5,62.75h1.571v1.571H187.5Zm0,0" transform="translate(-178.071 -59.357)" fill="#1877f2"/>
      <path id="Path_86846" data-name="Path 86846" d="M125,159.821a3.143,3.143,0,0,0,3.143,3.143h34.571a3.143,3.143,0,0,0,3.143-3.143V128.393a3.143,3.143,0,0,0-3.143-3.143H128.143A3.143,3.143,0,0,0,125,128.393Zm1.571-31.429a1.571,1.571,0,0,1,1.571-1.571h34.571a1.571,1.571,0,0,1,1.571,1.571v31.429a1.571,1.571,0,0,1-1.571,1.571H128.143a1.571,1.571,0,0,1-1.571-1.571Zm0,0" transform="translate(-118.714 -118.714)" fill="#1877f2"/>
      <path id="Path_86847" data-name="Path 86847" d="M187.5,187.75h1.571v1.571H187.5Zm0,0" transform="translate(-178.071 -178.071)" fill="#1877f2"/>
      <path id="Path_86848" data-name="Path 86848" d="M250,187.75h1.571v1.571H250Zm0,0" transform="translate(-237.429 -178.071)" fill="#1877f2"/>
      <path id="Path_86849" data-name="Path 86849" d="M312.5,187.75h1.571v1.571H312.5Zm0,0" transform="translate(-296.786 -178.071)" fill="#1877f2"/>
      <path id="Path_86850" data-name="Path 86850" d="M187.5,250.25h34.571v1.571H187.5Zm0,0" transform="translate(-178.071 -237.429)" fill="#1877f2"/>
      <path id="Path_86851" data-name="Path 86851" d="M187.5,328.375h6.286v1.571H187.5Zm0,0" transform="translate(-178.071 -311.625)" fill="#1877f2"/>
      <path id="Path_86852" data-name="Path 86852" d="M187.5,390.875h4.714v1.571H187.5Zm0,0" transform="translate(-178.071 -370.982)" fill="#1877f2"/>
      <path id="Path_86853" data-name="Path 86853" d="M427.375,453.375a5.5,5.5,0,1,0,5.5,5.5A5.5,5.5,0,0,0,427.375,453.375Zm0,9.429a3.929,3.929,0,1,1,3.929-3.929A3.929,3.929,0,0,1,427.375,462.8Zm0,0" transform="translate(-400.661 -430.339)" fill="#1877f2"/>
      <path id="Path_86854" data-name="Path 86854" d="M306.393,322.964a.785.785,0,0,0-.786-.786H303.53a9.987,9.987,0,0,0-.621-1.5l1.468-1.467a.786.786,0,0,0,0-1.111l-3.334-3.334a.786.786,0,0,0-1.111,0l-1.467,1.468a10.161,10.161,0,0,0-1.5-.621v-2.077a.785.785,0,0,0-.786-.786h-4.714a.785.785,0,0,0-.786.786v2.077a10.159,10.159,0,0,0-1.5.621l-1.467-1.468a.786.786,0,0,0-1.111,0l-3.334,3.334a.787.787,0,0,0,0,1.111l1.468,1.467c-.066.129-.129.258-.189.388a10.164,10.164,0,0,0-.432,1.113h-2.077a.785.785,0,0,0-.786.786v4.714a.785.785,0,0,0,.786.786h2.077a9.991,9.991,0,0,0,.621,1.5l-1.469,1.467a.787.787,0,0,0,0,1.111l3.334,3.334a.787.787,0,0,0,1.111,0l1.467-1.468a10.162,10.162,0,0,0,1.5.621v2.077a.785.785,0,0,0,.786.786h4.714a.785.785,0,0,0,.786-.786V335.03a10.164,10.164,0,0,0,1.5-.621l1.467,1.468a.787.787,0,0,0,1.111,0l3.334-3.334a.786.786,0,0,0,0-1.111l-1.468-1.467a9.987,9.987,0,0,0,.621-1.5h2.077a.785.785,0,0,0,.786-.786Zm-1.571,3.929H302.94a.786.786,0,0,0-.761.589,8.591,8.591,0,0,1-.919,2.222.786.786,0,0,0,.121.955l1.328,1.329-2.222,2.223-1.329-1.329a.786.786,0,0,0-.955-.121,8.583,8.583,0,0,1-2.222.919.786.786,0,0,0-.589.761v1.881H292.25V334.44a.786.786,0,0,0-.589-.761,8.583,8.583,0,0,1-2.222-.919.786.786,0,0,0-.955.121l-1.329,1.329-2.222-2.223,1.328-1.329a.786.786,0,0,0,.121-.955,8.591,8.591,0,0,1-.919-2.222.786.786,0,0,0-.761-.589h-1.881V323.75H284.7a.786.786,0,0,0,.761-.589,8.534,8.534,0,0,1,.511-1.44,8.672,8.672,0,0,1,.408-.786.786.786,0,0,0-.121-.954l-1.328-1.329,2.222-2.223,1.329,1.33a.785.785,0,0,0,.955.12,8.593,8.593,0,0,1,2.222-.919.786.786,0,0,0,.589-.76v-1.878h3.143V316.2a.786.786,0,0,0,.589.761,8.581,8.581,0,0,1,2.222.919.786.786,0,0,0,.955-.121l1.329-1.329,2.222,2.223-1.328,1.329a.786.786,0,0,0-.121.955,8.591,8.591,0,0,1,.919,2.222.786.786,0,0,0,.761.589h1.881Zm0,0" transform="translate(-267.107 -296.786)" fill="#1877f2"/>
      <path id="Path_86855" data-name="Path 86855" d="M781.25,781.5h4.714v1.571H781.25Zm0,0" transform="translate(-741.964 -741.964)" fill="#1877f2"/>
    </g>
  </g>
</svg>
