<svg xmlns="http://www.w3.org/2000/svg" width="46" height="45.999" viewBox="0 0 46 45.999">
  <g id="Group_30402" data-name="Group 30402" transform="translate(-12 -28.62)">
    <g id="startup" transform="translate(12 28.612)">
      <g id="Group_34762" data-name="Group 34762" transform="translate(23.898 27.499)">
        <g id="Group_34761" data-name="Group 34761">
          <path id="Path_86823" data-name="Path 86823" d="M266.9,305.991a.9.9,0,1,0,.9.9A.9.9,0,0,0,266.9,305.991Z" transform="translate(-265.999 -305.991)" fill="#1877f2"/>
        </g>
      </g>
      <g id="Group_34764" data-name="Group 34764" transform="translate(22.101 16.718)">
        <g id="Group_34763" data-name="Group 34763">
          <path id="Path_86824" data-name="Path 86824" d="M246.9,185.991a.9.9,0,1,0,.9.9A.9.9,0,0,0,246.9,185.991Z" transform="translate(-245.999 -185.991)" fill="#1877f2"/>
        </g>
      </g>
      <g id="Group_34766" data-name="Group 34766" transform="translate(18.508 13.124)">
        <g id="Group_34765" data-name="Group 34765">
          <path id="Path_86825" data-name="Path 86825" d="M210.491,145.991a4.492,4.492,0,1,0,4.492,4.492A4.5,4.5,0,0,0,210.491,145.991Zm0,7.187a2.7,2.7,0,1,1,2.7-2.7A2.7,2.7,0,0,1,210.491,153.178Z" transform="translate(-205.999 -145.991)" fill="#1877f2"/>
        </g>
      </g>
      <g id="Group_34768" data-name="Group 34768" transform="translate(0 0.008)">
        <g id="Group_34767" data-name="Group 34767">
          <path id="Path_86826" data-name="Path 86826" d="M40.34,35.225a5.783,5.783,0,0,0-5.345,3.606,4.487,4.487,0,0,0-1.54.158,5.407,5.407,0,0,0-5.962-1.662V32.2l1.01-2.019,2.735,4.1a.9.9,0,0,0,1.624-.3l1.247-5.525a6.179,6.179,0,0,0-2.231-7.1,6.248,6.248,0,0,0-1.44-.712l.342-2.328c0-.006,0-.013,0-.019A20.371,20.371,0,0,0,28.519,5.952,20.332,20.332,0,0,0,23.524.175a.9.9,0,0,0-1.111.05l-.075.061A20.046,20.046,0,0,0,15.35,11.309a20.965,20.965,0,0,0-.186,6.563l0,.018.4,2.761a6.258,6.258,0,0,0-1.447.714,6.179,6.179,0,0,0-2.231,7.1l1.247,5.525a.9.9,0,0,0,1.624.3l2.735-4.1,1.01,2.019v5.126a5.4,5.4,0,0,0-5.962,1.66,4.487,4.487,0,0,0-1.54-.159A5.783,5.783,0,0,0,5.66,35.225,5.6,5.6,0,0,0,0,40.616a5.6,5.6,0,0,0,5.66,5.391H40.34A5.6,5.6,0,0,0,46,40.616,5.6,5.6,0,0,0,40.34,35.225ZM30.169,22.475a4.171,4.171,0,0,1,2.219,5.463q-.014.042-.024.086l-.8,3.523-2.24-3.36ZM23.01,2.066a19.131,19.131,0,0,1,4.227,5.281,6.284,6.284,0,0,1-8.484-.008A19.306,19.306,0,0,1,23.01,2.066Zm-8.58,29.48-.8-3.523a.884.884,0,0,0-.024-.086,4.443,4.443,0,0,1,1.508-5.077,4.49,4.49,0,0,1,.716-.388l.835,5.713ZM18.386,27.5l-1.441-9.86A19.106,19.106,0,0,1,17.1,11.7a16.536,16.536,0,0,1,.85-2.683A8.081,8.081,0,0,0,28,9.057a19.737,19.737,0,0,1,1,9.016L27.523,28.124l-1.484,2.968H19.961l-.9-1.8H21.2a.9.9,0,1,0,0-1.8ZM40.34,44.21H5.66A3.834,3.834,0,0,1,1.8,40.616,3.834,3.834,0,0,1,5.66,37.022a4.018,4.018,0,0,1,3.6,2.3,4.491,4.491,0,0,0-1.121.818.9.9,0,1,0,1.272,1.269,2.684,2.684,0,0,1,1.181-.691h0a2.691,2.691,0,0,1,2.626.691A.9.9,0,0,0,14.5,40.136c-.1-.1-.2-.194-.31-.283a3.592,3.592,0,0,1,4.321-.552v2.213a.9.9,0,0,0,1.8,0V32.889H25.7v8.625a.9.9,0,0,0,1.8,0V39.3a3.6,3.6,0,0,1,4.321.554c-.107.089-.211.183-.31.283A.9.9,0,0,0,32.775,41.4a2.692,2.692,0,0,1,3.809,0,.9.9,0,0,0,1.272-1.269,4.494,4.494,0,0,0-1.121-.818,4.018,4.018,0,0,1,3.6-2.3A3.834,3.834,0,0,1,44.2,40.616,3.834,3.834,0,0,1,40.34,44.21Z" transform="translate(0 -0.008)" fill="#1877f2"/>
        </g>
      </g>
    </g>
  </g>
</svg>
