<svg xmlns="http://www.w3.org/2000/svg" width="39" height="45.731" viewBox="0 0 39 45.731">
  <g id="Group_30400" data-name="Group 30400" transform="translate(-12 -38.453)">
    <g id="secure-shield" transform="translate(12 38.453)">
      <g id="Group_34770" data-name="Group 34770" transform="translate(0 0)">
        <g id="Group_34769" data-name="Group 34769">
          <path id="Path_86827" data-name="Path 86827" d="M75.973,7.9A76.071,76.071,0,0,1,57.67.133a.962.962,0,0,0-.978,0A73.988,73.988,0,0,1,38.389,7.9a.962.962,0,0,0-.708.928v9.829a28.277,28.277,0,0,0,8.587,20.66c4.217,4.132,9.13,6.418,10.913,6.418s6.7-2.285,10.913-6.418a28.277,28.277,0,0,0,8.586-20.66V8.824A.962.962,0,0,0,75.973,7.9ZM74.757,18.653a26.391,26.391,0,0,1-8.009,19.286C62.6,42,58.167,43.807,57.181,43.807s-5.42-1.8-9.567-5.868a26.392,26.392,0,0,1-8.009-19.286v-9.1A75.761,75.761,0,0,0,57.181,2.076,78.159,78.159,0,0,0,74.757,9.554Z" transform="translate(-37.681 0)" fill="#1877f2"/>
          <path id="Path_86828" data-name="Path 86828" d="M87.491,99.553a.962.962,0,0,0-1.248-.542c-1.718.677-3.482,1.3-5.243,1.853a.962.962,0,0,0-.674.918V105.5a.962.962,0,0,0,1.924,0v-3.012c1.579-.511,3.156-1.076,4.7-1.683A.962.962,0,0,0,87.491,99.553Z" transform="translate(-76.518 -90.106)" fill="#1877f2"/>
          <path id="Path_86829" data-name="Path 86829" d="M171.167,88.135a.962.962,0,0,0,.386-.081l.018-.008a.962.962,0,1,0-.777-1.76l-.016.007a.962.962,0,0,0,.389,1.842Z" transform="translate(-158.366 -78.505)" fill="#1877f2"/>
          <path id="Path_86830" data-name="Path 86830" d="M310.565,345.685a.962.962,0,0,0-1.332.279,23.417,23.417,0,0,1-2.765,3.453,24.572,24.572,0,0,1-2.759,2.455.962.962,0,1,0,1.167,1.53,26.511,26.511,0,0,0,2.976-2.648,25.314,25.314,0,0,0,2.992-3.738A.962.962,0,0,0,310.565,345.685Z" transform="translate(-279.603 -314.666)" fill="#1877f2"/>
          <path id="Path_86831" data-name="Path 86831" d="M277.1,432.1l-.055.033a.962.962,0,1,0,.964,1.665l.064-.037a.962.962,0,1,0-.972-1.66Z" transform="translate(-255.227 -393.383)" fill="#1877f2"/>
          <path id="Path_86832" data-name="Path 86832" d="M128.16,161.693a3.128,3.128,0,1,0-4.424,4.424l5.68,5.68a3.129,3.129,0,0,0,4.424,0L145.7,159.939a3.128,3.128,0,0,0-4.424-4.424l-9.646,9.646Zm14.475-4.817a1.2,1.2,0,1,1,1.7,1.7L132.48,170.436a1.205,1.205,0,0,1-1.7,0l-5.68-5.68a1.2,1.2,0,0,1,1.7-1.7l4.148,4.148a.962.962,0,0,0,1.36,0Z" transform="translate(-115.217 -140.79)" fill="#1877f2"/>
        </g>
      </g>
    </g>
  </g>
</svg>
