<svg xmlns="http://www.w3.org/2000/svg" width="40" height="45.402" viewBox="0 0 40 45.402">
  <g id="Group_30403" data-name="Group 30403" transform="translate(0 0.001)">
    <g id="save-money" transform="translate(0 -0.001)">
      <path id="Path_86836" data-name="Path 86836" d="M189.28,158.094a.709.709,0,0,0-.255-.009,1.693,1.693,0,0,1-1.5-1.679.745.745,0,0,0-1.489,0,3.186,3.186,0,0,0,2.343,3.068v.745a.745.745,0,0,0,1.489,0v-.7a3.18,3.18,0,0,0-.652-6.293,1.691,1.691,0,1,1,1.691-1.691.745.745,0,1,0,1.489,0,3.186,3.186,0,0,0-2.529-3.113v-.678a.745.745,0,0,0-1.489,0v.723a3.18,3.18,0,0,0,.838,6.248,1.69,1.69,0,0,1,.062,3.379Zm0,0" transform="translate(-168.753 -133.316)" fill="#1877f2"/>
      <path id="Path_86837" data-name="Path 86837" d="M104.195,117.291a10.8,10.8,0,1,0,10.8-10.8A10.8,10.8,0,0,0,104.195,117.291Zm10.8-9.31a9.31,9.31,0,1,1-9.31,9.31A9.31,9.31,0,0,1,114.994,107.981Zm0,0" transform="translate(-94.529 -96.579)" fill="#1877f2"/>
      <path id="Path_86838" data-name="Path 86838" d="M35.3,329.323l-5.834,2.756a4.752,4.752,0,0,0-4.051-2.5l-5.385-.148a5.688,5.688,0,0,1-2.448-.632l-.548-.284a9.666,9.666,0,0,0-8.953.009l.034-1.241a.745.745,0,0,0-.724-.765l-5.905-.163a.744.744,0,0,0-.765.724L.36,340.039a.745.745,0,0,0,.724.765l5.905.163h.02a.745.745,0,0,0,.745-.724l.017-.62,1.534-.821a2.631,2.631,0,0,1,1.964-.215l9.161,2.571.048.012a9.806,9.806,0,0,0,2.013.208,9.936,9.936,0,0,0,4.151-.906.688.688,0,0,0,.092-.051l13.283-8.592a.745.745,0,0,0,.244-.992,3.762,3.762,0,0,0-4.968-1.513ZM1.869,339.336l.316-11.47,4.416.121-.316,11.471Zm24.1-.195a8.443,8.443,0,0,1-5.164.576l-9.137-2.565a4.118,4.118,0,0,0-3.07.336l-.784.42.21-7.627a8.186,8.186,0,0,1,8.316-.444l.548.284a7.192,7.192,0,0,0,3.092.8l5.386.148a3.266,3.266,0,0,1,3.1,2.6l-8.022-.221a.745.745,0,0,0-.041,1.489l8.853.244h.021a.745.745,0,0,0,.744-.724,4.726,4.726,0,0,0-.072-.966l5.984-2.827.017-.008a2.275,2.275,0,0,1,2.573.36Zm0,0" transform="translate(-0.36 -295.975)" fill="#1877f2"/>
      <path id="Path_86839" data-name="Path 86839" d="M213.692,7.82V.745a.745.745,0,1,0-1.489,0V7.82a.745.745,0,1,0,1.489,0Zm0,0" transform="translate(-192.482)" fill="#1877f2"/>
      <path id="Path_86840" data-name="Path 86840" d="M273.692,44.1V40.745a.745.745,0,1,0-1.489,0V44.1a.745.745,0,1,0,1.489,0Zm0,0" transform="translate(-246.897 -36.276)" fill="#1877f2"/>
      <path id="Path_86841" data-name="Path 86841" d="M153.692,44.1V40.745a.745.745,0,1,0-1.489,0V44.1a.745.745,0,0,0,1.489,0Zm0,0" transform="translate(-138.068 -36.276)" fill="#1877f2"/>
    </g>
  </g>
</svg>
