<svg xmlns="http://www.w3.org/2000/svg" width="39.931" height="44.445" viewBox="0 0 39.931 44.445">
  <g id="Group_30399" data-name="Group 30399" transform="translate(-101 3)">
    <g id="support" transform="translate(75 -3)">
      <g id="Group_34756" data-name="Group 34756" transform="translate(54.646 34.375)">
        <g id="Group_34755" data-name="Group 34755">
          <path id="Path_86820" data-name="Path 86820" d="M356.868,396a.868.868,0,1,0,.868.868A.868.868,0,0,0,356.868,396Z" transform="translate(-356 -396)" fill="#1877f2"/>
        </g>
      </g>
      <g id="Group_34758" data-name="Group 34758" transform="translate(26)">
        <g id="Group_34757" data-name="Group 34757">
          <path id="Path_86821" data-name="Path 86821" d="M57.652,31.568l-4.126-1.375-1.481-2.962a9.507,9.507,0,0,0,2.573-5.03l.185-1.107h1.58a2.607,2.607,0,0,0,2.6-2.6V13.021a13.021,13.021,0,1,0-26.042,0V18.49a2.608,2.608,0,0,0,1.736,2.455v1.017a2.607,2.607,0,0,0,2.6,2.6h.762A9.417,9.417,0,0,0,39.5,26.821c.123.141.251.278.382.412l-1.48,2.961-4.126,1.375A12.8,12.8,0,0,0,26,43.577a.868.868,0,0,0,.868.868H65.063a.868.868,0,0,0,.868-.868A12.8,12.8,0,0,0,57.652,31.568Zm-.4-13.079a.869.869,0,0,1-.868.868H55.057c.221-1.709.368-3.528.427-5.319,0-.051,0-.1,0-.149H57.25Zm-21.7.868a.869.869,0,0,1-.868-.868v-4.6h1.762q0,.136.009.273v.009h0c.061,1.742.206,3.514.422,5.186H35.549Zm1.736,3.472a.869.869,0,0,1-.868-.868v-.868h.712l.185,1.108c.035.211.079.42.129.629Zm-.867-10.677h-1.7a11.285,11.285,0,0,1,22.5,0h-1.7a8.792,8.792,0,0,0-8.77-8.681H45.189A8.792,8.792,0,0,0,36.418,12.153Zm8.77-6.945h1.554a7.059,7.059,0,0,1,7.036,7.067c0,.273,0,.511-.007.727,0,0,0,.006,0,.009l-1.086-.155a13.949,13.949,0,0,1-7.842-3.921.868.868,0,0,0-.614-.254,7.853,7.853,0,0,0-6.038,2.857A7.056,7.056,0,0,1,45.189,5.208ZM39.241,22.83A49.617,49.617,0,0,1,38.2,14.405l1.168-1.558a6.11,6.11,0,0,1,4.518-2.421,15.7,15.7,0,0,0,8.554,4.148l1.278.183c-.085,1.813-.26,3.632-.51,5.305v0c-.08.538-.142.884-.3,1.851a7.373,7.373,0,0,1-5.233,5.93A6.83,6.83,0,0,1,40,24.566h1.77A2.608,2.608,0,0,0,44.229,26.3h1.736a2.6,2.6,0,0,0,0-5.208H44.229a2.605,2.605,0,0,0-2.456,1.736ZM44.156,29.6a8.707,8.707,0,0,0,3.229.073L45.851,31.3Zm.5,2.957L41.9,35.471a33.075,33.075,0,0,1-1.944-4.507L40.995,28.9ZM50.789,28.6l1.181,2.362a33.065,33.065,0,0,1-1.944,4.508l-2.947-2.947Zm-7.428-4.9a.868.868,0,0,1,.868-.868h1.736a.868.868,0,1,1,0,1.736H44.229A.869.869,0,0,1,43.361,23.7ZM27.771,42.709a10.97,10.97,0,0,1,7.058-9.493L38.482,32a34.8,34.8,0,0,0,2.471,5.359l0,.009h0a34.807,34.807,0,0,0,2.376,3.628L44.4,42.709Zm18.195-.774-1.177-1.89q-.02-.032-.042-.062a33.1,33.1,0,0,1-1.956-2.922l3.1-3.274,3.262,3.262a33.062,33.062,0,0,1-1.963,2.934C47.143,40.04,47.2,39.95,45.965,41.935Zm1.563.774L48.6,40.994a34.794,34.794,0,0,0,2.393-3.657L51,37.314l0,0A34.77,34.77,0,0,0,53.449,32L57.1,33.215a10.97,10.97,0,0,1,7.058,9.493H47.529Z" transform="translate(-26)" fill="#1877f2"/>
        </g>
      </g>
      <g id="Group_34760" data-name="Group 34760" transform="translate(57.696 36.032)">
        <g id="Group_34759" data-name="Group 34759">
          <path id="Path_86822" data-name="Path 86822" d="M394.994,418.252a8.679,8.679,0,0,0-2.457-2.983.868.868,0,1,0-1.059,1.376,6.933,6.933,0,0,1,1.963,2.383.868.868,0,0,0,1.553-.776Z" transform="translate(-391.139 -415.088)" fill="#1877f2"/>
        </g>
      </g>
    </g>
  </g>
</svg>
