<svg xmlns="http://www.w3.org/2000/svg" width="43.989" height="44" viewBox="0 0 43.989 44">
  <g id="Group_30406" data-name="Group 30406" transform="translate(-14 -12.001)">
    <g id="XMLID_1387_" transform="translate(14 12.001)">
      <g id="XMLID_352_" transform="translate(0 0)">
        <g id="XMLID_353_">
          <path id="XMLID_1385_" d="M181.292,97.75h2a.859.859,0,1,0,0-1.718h-3.752a.859.859,0,0,0-.859.859v3.752a.859.859,0,1,0,1.718,0V99.577A20.283,20.283,0,0,1,155.3,128.591a.859.859,0,1,0-.641,1.594A22,22,0,0,0,181.292,97.75Z" transform="translate(-140.88 -87.781)" fill="#1877f2"/>
          <path id="XMLID_1384_" d="M119.394,456.316l-.032-.019a.859.859,0,0,0-.9,1.467l.036.022a.859.859,0,0,0,.891-1.469Z" transform="translate(-107.918 -416.978)" fill="#1877f2"/>
          <path id="XMLID_364_" d="M375.3,37.988l.042.026a.859.859,0,0,0,.9-1.462l-.044-.027a.859.859,0,1,0-.9,1.463Z" transform="translate(-342.688 -33.271)" fill="#1877f2"/>
          <path id="XMLID_363_" d="M5.5,30.31a.859.859,0,0,0-.859.859v1.223A20.282,20.282,0,0,1,29.753,3.233a.859.859,0,1,0,.651-1.59,22,22,0,0,0-26.69,32.5H1.673a.859.859,0,1,0,0,1.718H5.5A.859.859,0,0,0,6.362,35v-3.83A.859.859,0,0,0,5.5,30.31Z" transform="translate(-0.062 0)" fill="#1877f2"/>
          <path id="XMLID_362_" d="M89.711,105.309a15.634,15.634,0,1,0-8.129-28.992.859.859,0,1,0,.894,1.467,13.919,13.919,0,1,1-4.654,4.649.859.859,0,1,0-1.467-.9,15.711,15.711,0,0,0-2.183,9.9,15.624,15.624,0,0,0,15.538,13.867Z" transform="translate(-67.716 -67.682)" fill="#1877f2"/>
          <path id="XMLID_361_" d="M375.156,247.91a.859.859,0,1,0,0-1.718h-.52a.859.859,0,1,0,0,1.718Z" transform="translate(-341.668 -225.04)" fill="#1877f2"/>
          <path id="XMLID_360_" d="M113.148,245.872a.859.859,0,1,0,0,1.718h.52a.859.859,0,1,0,0-1.718Z" transform="translate(-102.647 -224.747)" fill="#1877f2"/>
          <path id="XMLID_359_" d="M247.939,113.639v-.52a.859.859,0,1,0-1.718,0v.52a.859.859,0,0,0,1.718,0Z" transform="translate(-225.072 -102.614)" fill="#1877f2"/>
          <path id="XMLID_358_" d="M245.9,374.605v.52a.859.859,0,0,0,1.718,0v-.52a.859.859,0,0,0-1.718,0Z" transform="translate(-224.78 -341.635)" fill="#1877f2"/>
          <path id="XMLID_355_" d="M191.339,159.12a.859.859,0,0,0-1.215,1.215l2.853,2.853a2.923,2.923,0,1,0,5.165,0l5.764-5.764a.859.859,0,1,0-1.215-1.215l-5.764,5.764a2.915,2.915,0,0,0-2.734,0Zm5.425,5.435a1.2,1.2,0,1,1-1.2-1.2A1.206,1.206,0,0,1,196.764,164.555Z" transform="translate(-173.564 -142.558)" fill="#1877f2"/>
          <circle id="XMLID_354_" cx="0.859" cy="0.859" r="0.859" transform="translate(10.663 10.712)" fill="#1877f2"/>
        </g>
      </g>
    </g>
  </g>
</svg>
